<?xml version="1.0" encoding="UTF-8"?><svg id="Capa_1" xmlns="http://www.w3.org/2000/svg" viewBox="0 0 275.54 52.42"><defs><style>.cls-1{fill:#0183f9;}</style></defs><path class="cls-1" d="M13.96,10.05c.67-.3,2.13.5,1.05.83-.82.25-.87-.17-1.05-.83Z"/><path class="cls-1" d="M80.6,51.55h-11.23v-5.03l-.44.09c-2.29,4.73-7.4,5.92-12.3,5.52-5.23-.43-9.97-3.56-10.43-9.13-.66-8.05,3.9-11.61,11.34-12.81,2.87-.46,6.85-.33,9.48-1.31,3.32-1.23,2-5.07-.93-5.87-3.17-.87-7.11.04-8.04,3.55l-10.71-.67c.87-6.11,5.52-9.87,11.37-11.05,8.88-1.78,21.43.58,21.89,11.63v25.07ZM69.08,35.18c-1.01.24-1.99.58-3.02.8-3.09.66-9.05.7-8.79,5.17.22,3.77,5.5,3.84,8.16,2.68,1.98-.87,3.64-3.05,3.64-5.27v-3.37Z"/><path class="cls-1" d="M43.9,0l-19.41,21.59,20.13,30.54h-15.76l-11.36-16.95c-.01-3.17-2.84-5.37-2.35-8.5.12-.76.7-1.6.9-2.4.75-2.98-.94-5.6-1.66-8.4-.02-.3,0-.19.22-.22,2.08-.31,4.97.53,6.1-1.83.09-.63-1.67-1.95-2.28-2.2l.07-.28L28.87.43c.15-.06.18-.43.21-.43h14.82Z"/><path class="cls-1" d="M0,0l11.51.15c0,2.71.19,5.26,0,7.97-.01.21.11.42-.21.36-.77-.78-1.52-1.59-2.54-2.06-1.57-.73-2.43-1.01-2.13,1.12.23,1.68,2.2,2.7,3.42,3.63-.02,1.59.21,3.23-.2,4.78-.8,3-2.6,4.5-5.06,6.15-1.5,1.01-3.17,1.96-4.79,2.76V0Z"/><path class="cls-1" d="M11.53,49.38c1.86.66,4.44.23,5.81,1.88.18.22.83.93.29,1.01-1.73.24-1.5-.4-2.66-.94s-1.95-.25-3.1-.35c-1.33-.12-3.22-.2-4.46-.43-1.34-.24-.45-1.93-.14-2.72,1.49-3.86,3.69-7.69,4.86-11.67.91-3.08.55-3.87-1.34-6.35-.39-.51-1.15-.91-1.15-1.66,1.02.11,1.85,1.01,2.52,1.72.89.95,2.08,2.49,2.23,3.81.29,2.66-2.45,6.19-2.84,8.8-.09.62-.16,1.6-.19,2.25-.07,1.55,0,3.13.17,4.66Z"/><path class="cls-1" d="M0,52.27v-14.36c.32.02.63.31.87.5,3.99,3.24,3.29,6.55,2.59,11.2-.12.82-.04,1.92-.5,2.66H0Z"/><path class="cls-1" d="M257.77,52.42h-2.73c-23.14-1.22-23.56-36.88.21-38.06,25.97-1.3,27.16,36.5,2.75,37.93l-.23.13ZM255.43,23.59c-8.87,1.2-7.74,22.63,3.09,19.31,7.3-2.24,7.07-20.68-3.09-19.31Z"/><path class="cls-1" d="M193.87,14.94v9.91c-3.86-.49-8.42-.98-10.77,2.83-.43.7-1.18,2.64-1.18,3.42v20.46h-11.8V15.15l.22-.22h11.15v6.61c.33.06.23-.01.32-.18.23-.42.33-1.1.56-1.59,2.31-4.99,6.44-5.41,11.49-4.83Z"/><path class="cls-1" d="M215.89,52.42h-2.73c-23.14-1.22-23.56-36.88.21-38.06,25.97-1.3,27.16,36.5,2.75,37.93l-.23.13ZM213.55,23.59c-8.87,1.2-7.74,22.63,3.09,19.31,7.3-2.24,7.07-20.68-3.09-19.31Z"/><path class="cls-1" d="M123.2,51.55h-11.8v-22.33c0-.3-.44-1.49-.6-1.85-2.4-5.51-11.49-3.48-11.49,2.56v21.61h-11.8V15.15l.22-.22h11.15l.15,6.46c.86-1.12,1.54-2.4,2.52-3.45,2.96-3.16,7.28-4.06,11.47-3.4,6.5,1.01,9.82,6.46,10.19,12.67v24.34Z"/><path class="cls-1" d="M163.07,51.55h-11.23v-5.03l-.44.09c-2.29,4.73-7.4,5.92-12.3,5.52-5.23-.43-9.97-3.56-10.43-9.13-.66-8.05,3.9-11.61,11.34-12.81,2.87-.46,6.85-.33,9.48-1.31,3.32-1.23,2-5.07-.93-5.87-3.17-.87-7.11.04-8.04,3.55l-10.71-.67c.87-6.11,5.52-9.87,11.37-11.05,8.88-1.78,21.43.58,21.89,11.63v25.07ZM151.55,35.18c-1.01.24-1.99.58-3.02.8-3.09.66-9.05.7-8.79,5.17.22,3.77,5.5,3.84,8.16,2.68,1.98-.87,3.64-3.05,3.64-5.27v-3.37Z"/></svg>