<?xml version="1.0" encoding="UTF-8"?><svg id="Capa_1" xmlns="http://www.w3.org/2000/svg" viewBox="0 0 318.85 372.75"><defs><style>.cls-1{fill:#0081f8;}</style></defs><path class="cls-1" d="M312.87,0l-138.39,153.18,144.37,216.97-1.11,1.85h-112.65c-5.38-8.86-10.98-17.68-16.74-26.3-19.32-28.91-40.78-58.38-58.71-87.99-5.76-9.51-4.61-11.99-7.29-21.91-4.21-15.58-16.67-26.69-14.37-43.63.91-6.68,5.39-12.92,6.94-19.26,5.21-21.2-7.02-40.28-11.66-60.27-.14-1.57.11-.98,1.13-1.14,3.25-.49,7.72.19,11.24,0,9.61-.52,24.57-1.1,30.72-9.69,6.89-9.61-15.26-17.68-14.59-20.55L208.46,0h104.42Z"/><path class="cls-1" d="M0,0l82.33.76c-.31,19.16,1.39,38.14,0,57.26-.08,1.12.58,2.17-1.11,1.85-8.25-8.95-19.28-17.94-32.07-17.84-3.75,1.29-1.29,12.05-.29,15.02,3.31,9.85,15.75,16.35,23.76,22.06.36,15.85.86,29.04-5.43,43.83-11.78,27.71-42.22,38.31-65.39,54.39-1.64.26-1.8-2.23-1.8-3.31V0Z"/><path class="cls-1" d="M100.3,71.11c2.03-.69,10.13,1.36,9.69,4.03-4.13,4.39-9.74,2.08-9.69-4.03Z"/><path class="cls-1" d="M116.02,372.75c-6.63-7.88-14.71-8.82-24.33-9.72-11.55-1.08-24.44-.64-35.84-2.34-3.89-.58-8.69-3.03-7.8-7.59.98-4.99,5.6-14.81,7.74-20,10.08-24.54,22.98-48.56,30.82-73.97,5.61-18.17,6.26-25.82-5.15-41.57-2.75-3.8-11.5-12.27-12.59-15.86-.9-2.97,5.85.63,6.49.99,7.12,4.03,21.93,21.2,25.07,28.83,4.89,11.9,2.37,18.04-1.61,29.34-7.56,21.45-16.29,32.7-17.27,56.83-.47,11.58.14,23.28.81,34.81,16.28,4.37,38.28,1.31,45.63,20.24h-11.98Z"/><path class="cls-1" d="M22.46,372.75H.75l.03-101.39,1.45-1.9c.49,2.93,3.9,3.75,6.01,5.6,27.03,23.79,21.43,47.86,17.1,80.74-.75,5.67-2.13,11.28-2.89,16.95Z"/></svg>