<?xml version="1.0" encoding="UTF-8"?><svg id="Capa_1" xmlns="http://www.w3.org/2000/svg" viewBox="0 0 317.94 372.75"><defs><style>.cls-1{fill:#f9f9f8;}</style></defs><path class="cls-1" d="M126.75,372.75h-10.5c-1.95-1.56-4.12-4.25-6.05-5.58-8.79-6.05-39.76-4.9-51.99-6.51-12.34-1.63-11.29-5.68-7.58-15.65,11.52-30.94,30.48-62.3,38.23-94.52,2.94-12.19,2.58-16.86-3.73-27.76-4.13-7.13-11.24-13.02-15.04-19.46-.59-.99-1.48-1.53-1.09-3.03,6.71,2.3,12.1,7.65,16.88,12.74,7.3,7.77,16.97,20.7,16.71,31.9-.07,3.04-4.69,14.86-6.04,18.55-7.13,19.5-15.45,31.65-16.35,53.4-.48,11.68-.02,23.58.88,35.19l1.17,1.08c15.32,3.57,38.18,1.73,44.48,19.64Z"/><path class="cls-1" d="M21.75,372.75H.75v-102.75c12.51,10.55,24.08,20.68,26.04,38.08,2.33,20.66-3.85,43.95-5.04,64.67Z"/><path class="cls-1" d="M100.5,70.5c3.74-.86,12.48,4.39,5.44,5.86-4.23.88-5.19-2.28-5.44-5.86Z"/><path class="cls-1" d="M312,0l-138.62,152.75,144.56,217.46-1.07,1.8h-111c-17.95-27.9-36.97-55.11-55.14-82.86-6.59-10.06-22.01-30.27-25.85-40.15-2.28-5.85-2.32-13.73-4.87-20.63-3.15-8.52-10.92-18.37-11.93-27.07-1.52-12.95,5.5-20.41,7.34-32.25,3.15-20.26-7.39-37.96-11.93-56.91,12.26-1.33,33.35.84,42.31-9.46,4.24-4.88,3.14-7.36-1.03-11.57-2-2.01-12.27-8.77-12.66-9.46s-.08-1.5.27-2.15c1.5-2.77,11.63-11.44,14.65-14.61,20.48-21.52,40.51-43.48,61.11-64.89h103.88Z"/><path class="cls-1" d="M79.88,0c.74.47.97,1.04,1.12,1.88,1.08,5.88-.15,17.34-.03,24.03.03,1.77.8,3.42.81,5.19.06,9.19-.56,18.25-.79,27.41-7.25-7.28-13.76-13.09-23.8-16.32-7.26-2.34-11.99-3.58-11.44,6.18.92,16.11,14.47,22.05,25.35,30.91.36,14.02,1.05,28.01-4.22,41.24-11.28,28.3-41.34,39.36-65.05,54.95-1.1.66-1.83-2.43-1.83-2.59V0h79.88Z"/></svg>