<?xml version="1.0" encoding="UTF-8"?><svg id="Capa_1" xmlns="http://www.w3.org/2000/svg" viewBox="0 0 275.45 52.56"><defs><style>.cls-1{fill:#fdfdfd;}</style></defs><path class="cls-1" d="M17.71,52.56h-1.44c-.02-.33-.28-.52-.51-.72-1.47-1.25-5.64-.94-7.61-1.17-.57-.07-1.22-.27-1.51-.81,1.31-4.13,3.54-8.02,4.98-12.1.45-1.29,1.17-3.21,1.03-4.56-.2-1.86-1.89-3.11-2.81-4.54-.08-.12-.36-.32-.13-.45,1.82.81,4.37,3.66,4.53,5.69.19,2.4-2.41,6.03-2.87,8.51-.27,1.46-.27,4.24-.16,5.76.02.33.08,1.39.39,1.49,2.07.39,5.61.27,6.1,2.9Z"/><path class="cls-1" d="M43.63,0l-19.29,21.53,20.14,30.4-.2.34h-15.41c-2.59-3.93-5.29-7.79-7.85-11.73-.86-1.32-3.15-4.38-3.56-5.65-.33-1.01-.33-2.01-.79-3.1-.77-1.83-1.9-2.77-1.52-5.04.12-.73.74-1.62.91-2.4.2-.92.2-2.43.03-3.36-.14-.8-1.81-4.98-1.55-5.29,1.7,0,4.56.19,5.82-1.17,1.41-1.51-2.05-2.75-1.93-3.22L28.94,0h14.69Z"/><path class="cls-1" d="M11.23,0l.14,8.21c-.15.17-1.31-1.11-1.54-1.27-.57-.42-2.71-1.57-3.29-1.04-.33.3-.1,1.56.03,1.99.43,1.5,2.22,2.37,3.34,3.29.03,1.51.12,3.04-.18,4.52C8.76,20.49,3.72,22.46,0,24.77V0s11.23,0,11.23,0Z"/><path class="cls-1" d="M3.02,52.56H.14l-.07-14.55c1.66,1.22,3.34,2.85,3.63,5.01.42,3.09-.55,6.45-.68,9.54Z"/><path class="cls-1" d="M15.26,10.65l-.99.13-.16-.85c.22-.02,1.39.39,1.15.72Z"/><path class="cls-1" d="M123.12,51.7h-11.81v-22.39c0-.3-.44-1.5-.6-1.85-2.4-5.51-11.5-3.49-11.5,2.57v21.67h-11.81V15.19l.22-.22h11.16l.15,6.48c.86-1.13,1.54-2.41,2.52-3.46,2.96-3.17,7.28-4.07,11.48-3.41,6.5,1.02,9.82,6.48,10.19,12.7v24.41Z"/><path class="cls-1" d="M140.69,52.56c.08-.44-.22-.28-.5-.29-7.78-.28-12.25-4.41-11.6-12.45.78-9.55,11.65-9.22,18.48-10.32,2.49-.4,5.18-1.02,4.01-4.25-1.09-3.04-6.65-2.96-8.86-1.31-.94.7-1.35,1.66-1.78,2.72l-10.71-.67c1.52-10.16,12.32-12.61,21.08-11.26,6.68,1.03,11.77,4.69,12.2,11.85v25.13h-11.24v-5.04c-.58-.14-.48.39-.75.77-2.56,3.56-5.18,4.72-9.56,4.85-.28,0-.58-.15-.5.29h-.29ZM151.49,35.28c-1.02.24-1.99.58-3.02.8-3.09.66-9.05.7-8.79,5.19.22,3.78,5.51,3.85,8.17,2.69,1.98-.87,3.64-3.06,3.64-5.28v-3.38Z"/><path class="cls-1" d="M193.82,14.98v9.94c-3.86-.49-8.43-.98-10.77,2.84-.43.7-1.18,2.65-1.18,3.43v20.52h-11.81V15.19l.22-.22h11.16v6.62c.33.06.23-.01.32-.18.23-.43.33-1.1.56-1.6,2.31-5,6.45-5.42,11.5-4.84Z"/><path class="cls-1" d="M211.97,52.56c.08-.46-.23-.25-.5-.28-12.44-1.51-18.01-13.31-15.01-24.81,4.55-17.44,31.56-17.61,36.24-.17,3.11,11.59-2.37,23.36-14.89,24.98-.27.03-.58-.18-.5.28h-5.33ZM213.52,23.65c-8.87,1.2-7.75,22.69,3.09,19.36,7.31-2.25,7.08-20.74-3.09-19.36Z"/><path class="cls-1" d="M253.87,52.56c.08-.46-.23-.25-.5-.28-12.44-1.51-18.01-13.31-15.01-24.81,4.55-17.44,31.56-17.61,36.24-.17,3.11,11.59-2.37,23.36-14.89,24.98-.27.03-.58-.18-.5.28h-5.33ZM255.42,23.65c-8.87,1.2-7.75,22.69,3.09,19.36,7.31-2.25,7.08-20.74-3.09-19.36Z"/><path class="cls-1" d="M58.18,52.56c.08-.44-.22-.28-.5-.29-7.78-.28-12.25-4.41-11.6-12.45.78-9.55,11.65-9.22,18.48-10.32,2.49-.4,5.18-1.02,4.01-4.25-1.09-3.04-6.65-2.96-8.86-1.31-.94.7-1.35,1.66-1.78,2.72l-10.71-.67c1.52-10.16,12.32-12.61,21.08-11.26,6.68,1.03,11.77,4.69,12.2,11.85v25.13h-11.24v-5.04c-.58-.14-.48.39-.75.77-2.56,3.56-5.18,4.72-9.56,4.85-.28,0-.58-.15-.5.29h-.29ZM68.98,35.28c-1.02.24-1.99.58-3.02.8-3.09.66-9.05.7-8.79,5.19.22,3.78,5.51,3.85,8.17,2.69,1.98-.87,3.64-3.06,3.64-5.28v-3.38Z"/></svg>