<?xml version="1.0" encoding="UTF-8"?><svg id="Capa_1" xmlns="http://www.w3.org/2000/svg" viewBox="0 0 317.79 372.9"><defs><style>.cls-1{fill:#010101;}</style></defs><path class="cls-1" d="M312.55.14l-138.35,153.19,143.58,218.81h-111.9c-16.81-24.79-33.91-49.56-50.38-74.62-7.07-10.76-27.11-37.76-30.66-47.93-1.77-5.08-1.82-11.21-3.55-16.66-5.17-16.3-17.68-25.35-12.73-44.19,3.32-12.64,8.12-15.38,7.16-31.08-.9-14.57-12.18-33.42-12.04-44.14l.02-1.87c13.06-.73,34.07,2.16,42.67-10.1,5.88-8.38-10.87-14.79-14.95-20.21L208.13.14h104.42Z"/><path class="cls-1" d="M82.01,59.28c-1.39,1.41-5.12-4.18-6.35-5.26-7.2-6.33-18.1-12.83-27.98-11.85-5.16,19.68,11.24,28.1,24.45,37.83,1.03,19.29-.37,38.38-11.97,54.36-10.9,15.01-30.9,26.13-46.79,35.55-1.32.78-12.46,7.42-12.95,6.88L0,.84c1.33-1.92,9.5.02,11.99.08,17.47.48,35.07-.36,52.4,0,4.5.09,11.77-.76,15.75-.03.84.15,1.4.38,1.87,1.12v57.26Z"/><path class="cls-1" d="M127.67,372.9h-11.6c-.4,0-4.76-4.22-6.13-5.1-10.77-6.93-40.33-5.03-54.44-6.94-9.33-1.26-7.54-6.89-5.49-13.59,8.95-29.31,27.39-58.68,36.69-89.06,8.98-29.37-.33-31.81-15.79-52.72-.75-1.01-2.9-3.57-1.99-4.75,4.44.45,7.95,3.27,11.2,6.02,9.59,8.12,22.28,24.12,22.86,37.06.46,10.22-13,36.28-17.04,47.31-4.51,12.32-5.38,25.54-5.46,38.7-.05,7.48.82,14.94,1.65,22.37l1.14,1.1c16.06,3.38,37.22,1.43,44.4,19.6Z"/><path class="cls-1" d="M22.13,372.9H1.54l-1.12-1.12v-101.42c2.78,1.22,5.94,3.63,8.24,5.6,24.44,20.97,20.64,43.14,17.11,72.52-.98,8.15-2.64,16.28-3.65,24.42Z"/><path class="cls-1" d="M100.72,71.25c2.6-.51,10.56,1.58,7.91,5.29-5.03,2.17-8.62.46-7.91-5.29Z"/></svg>